<svg version="1.1" id="Layer_1" xmlns="http://www.w3.org/2000/svg" xmlns:xlink="http://www.w3.org/1999/xlink" x="0px" y="0px"
	 width="100%" viewBox="0 0 1186 512" enable-background="new 0 0 1186 512" xml:space="preserve">
<path fill="#FEFFFF" opacity="0.000000" stroke="none" 
	d="
M818.000000,513.000000 
	C545.333374,513.000000 273.166718,513.000000 1.000073,513.000000 
	C1.000049,342.333374 1.000049,171.666779 1.000024,1.000119 
	C396.333252,1.000079 791.666504,1.000079 1186.999756,1.000040 
	C1186.999878,171.666550 1186.999878,342.333099 1187.000000,512.999817 
	C1064.166626,513.000000 941.333313,513.000000 818.000000,513.000000 
M24.035126,443.771210 
	C30.782316,451.234528 37.396343,458.824066 44.316837,466.123047 
	C50.366505,472.503540 58.117966,475.925903 66.761627,476.844147 
	C78.779366,478.120789 90.828880,479.233185 102.893280,479.902924 
	C119.628281,480.832001 136.386536,481.385864 153.140747,481.911957 
	C168.252518,482.386475 183.371689,482.862671 198.488541,482.895569 
	C260.762299,483.031067 323.036377,483.014038 385.310333,483.015350 
	C400.292664,483.015686 415.274994,482.871490 430.659363,483.485748 
	C431.540833,487.685974 431.915710,492.076782 433.409149,496.046783 
	C436.522644,504.323181 443.593811,511.168915 454.909729,502.959625 
	C452.987030,496.372833 451.043671,489.715240 450.023865,483.007446 
	C469.809784,482.684784 489.594818,482.286713 509.381805,482.056396 
	C542.656860,481.669067 575.932617,481.294586 609.209106,481.091980 
	C636.356995,480.926666 663.506775,481.108704 690.655029,480.980804 
	C745.418701,480.722809 800.182251,480.410858 854.945068,480.005310 
	C870.568909,479.889618 886.192078,479.458435 901.811462,479.023010 
	C922.563171,478.444489 943.315674,477.842896 964.058899,477.024506 
	C985.609436,476.174255 1007.154907,475.157349 1028.692139,474.016876 
	C1044.250122,473.193024 1059.821899,472.383972 1075.331543,470.958038 
	C1093.285156,469.307434 1111.205322,467.204712 1129.085083,464.875793 
	C1139.392578,463.533203 1146.499023,457.354279 1151.551758,447.701874 
	C1158.273926,438.156555 1162.167969,427.503296 1164.527710,415.540009 
	C1166.906006,405.224152 1169.858398,395.000275 1171.530151,384.571198 
	C1174.148804,368.235535 1176.134888,351.786682 1177.937134,335.336273 
	C1179.073975,324.960876 1179.655029,314.504395 1180.008911,304.068146 
	C1180.570190,287.514893 1181.283447,270.936462 1180.931396,254.389954 
	C1180.433960,230.992081 1179.219971,207.602722 1177.916016,184.231827 
	C1177.344971,173.995850 1176.324463,163.722260 1174.567871,153.629379 
	C1171.730469,137.326370 1168.115967,121.158569 1164.880737,104.155899 
	C1161.631348,95.358437 1158.543945,86.495354 1155.021973,77.808418 
	C1154.111450,75.562637 1151.837280,73.869659 1150.051514,71.224213 
	C1146.560425,63.485558 1140.849121,57.450710 1132.545532,56.305748 
	C1108.945801,53.051609 1085.244873,50.460045 1061.533813,48.111858 
	C1046.529297,46.625916 1031.444580,45.867138 1016.379883,45.094707 
	C993.837952,43.938896 971.285095,42.981449 948.730896,42.089878 
	C935.944214,41.584419 923.146118,41.364479 910.352478,41.041775 
	C896.559387,40.693851 882.766541,40.326332 868.971802,40.057178 
	C849.681580,39.680794 830.390686,39.178940 811.098450,39.094021 
	C715.509460,38.673279 619.919922,38.360317 524.330505,38.037067 
	C501.174652,37.958763 478.018402,38.015587 454.862671,37.922268 
	C452.236511,37.911682 449.612640,37.328194 447.028809,36.248753 
	C449.697968,27.375164 452.367126,18.501577 455.010437,9.713924 
	C445.886902,4.640826 441.604828,4.888089 436.686737,11.019020 
	C435.062866,13.043397 433.556946,15.527699 433.055054,18.015181 
	C431.780792,24.330608 431.105042,30.766811 429.230530,37.095058 
	C359.888977,37.385124 290.547150,37.619644 221.206100,37.999535 
	C200.756744,38.111572 180.308670,38.585438 159.861877,38.988605 
	C148.572708,39.211201 137.279037,39.457401 126.002304,40.001774 
	C107.952583,40.873100 89.889694,41.690453 71.885155,43.172096 
	C64.579117,43.773331 56.798824,44.160328 50.674553,49.215263 
	C44.665291,54.175270 38.628815,59.151947 33.094532,64.617706 
	C30.147060,67.528679 28.237047,71.490105 25.202477,75.102264 
	C23.803133,76.459412 22.113926,77.621712 21.050077,79.204369 
	C12.142366,92.456223 6.727351,107.009155 5.063723,123.881989 
	C4.722616,145.915588 4.381510,167.949188 4.004785,190.923233 
	C4.016683,234.621399 4.028582,278.319550 4.013688,322.952454 
	C4.338357,345.008942 4.663026,367.065460 4.922140,389.876678 
	C4.687017,391.166046 4.127479,392.491516 4.266215,393.739319 
	C5.922484,408.635590 10.521538,422.644196 17.664864,435.768494 
	C19.165035,438.524719 21.814957,440.655151 24.035126,443.771210 
z"/>
<path fill="#d90429" opacity="1.000000" stroke="none" 
	d="
M4.987695,389.121948 
	C4.663026,367.065460 4.338357,345.008942 4.447444,322.477600 
	C10.955527,323.510468 17.005487,325.128174 23.113855,326.482361 
	C26.462120,327.224609 27.081539,329.243683 27.050484,332.288513 
	C26.929918,344.109222 26.850430,355.935638 27.146528,367.750153 
	C27.197573,369.786896 28.654133,372.796204 30.312225,373.598969 
	C35.630016,376.173492 41.187626,378.787811 46.936432,379.847595 
	C77.627029,385.505310 108.402229,390.704651 139.151489,396.043427 
	C164.371735,400.422211 189.605408,404.724304 214.817337,409.150238 
	C248.489365,415.061371 282.150238,421.036377 315.807770,427.029419 
	C333.854889,430.242889 351.866974,433.657013 369.934601,436.748444 
	C374.888245,437.596008 379.985229,437.606049 385.356598,438.136658 
	C389.115997,438.021973 392.634613,438.206329 395.938934,437.452057 
	C425.477936,430.709106 454.999603,423.886780 484.482422,416.902405 
	C497.945862,413.712982 511.310852,410.108093 524.813232,406.667999 
	C521.996521,401.027557 519.364136,396.064819 517.003418,390.976044 
	C506.175201,367.634613 499.639099,342.970825 495.064484,317.772095 
	C492.437164,303.300110 490.222443,288.739227 488.341370,274.151398 
	C487.347595,266.444855 486.389282,258.467224 487.292999,250.834366 
	C489.644043,230.977112 492.566528,211.158447 496.122223,191.479980 
	C500.918793,164.934006 508.529572,139.188934 520.974548,115.077164 
	C522.235962,112.633148 523.599854,110.241966 525.203308,107.299309 
	C491.390106,99.092255 458.291809,90.806969 425.055878,83.116486 
	C411.879913,80.067688 398.398376,78.339554 384.742920,75.791924 
	C381.979309,75.206314 379.424011,74.195694 377.094940,74.574867 
	C360.779449,77.231026 344.516235,80.206612 328.225220,83.015717 
	C314.219177,85.430809 300.187653,87.699112 286.187683,90.148354 
	C275.606232,91.999542 265.072052,94.121422 254.489822,95.967926 
	C233.973480,99.547836 213.434052,102.995209 192.911926,106.542282 
	C176.785385,109.329636 160.676926,112.221771 144.548691,114.999146 
	C126.147255,118.168007 107.729797,121.243706 89.325333,124.395050 
	C80.527664,125.901451 71.691566,127.243843 62.967831,129.105453 
	C53.288849,131.170914 43.665443,133.552292 34.122955,136.178101 
	C29.459217,137.461411 26.699907,140.393921 26.887100,146.023117 
	C27.269054,157.508957 27.110994,169.018616 26.883877,180.512695 
	C26.849134,182.271027 25.588306,185.194016 24.332251,185.540619 
	C17.667219,187.379807 10.822728,188.568649 4.040403,189.982788 
	C4.381510,167.949188 4.722616,145.915588 5.494253,123.423294 
	C12.227332,122.647148 17.067465,119.546631 20.196022,114.339897 
	C27.562922,102.079491 28.712830,88.781792 25.858765,74.977402 
	C28.237047,71.490105 30.147060,67.528679 33.094532,64.617706 
	C38.628815,59.151947 44.665291,54.175270 50.674553,49.215263 
	C56.798824,44.160328 64.579117,43.773331 71.885155,43.172096 
	C89.889694,41.690453 107.952583,40.873100 126.002304,40.001774 
	C137.279037,39.457401 148.572708,39.211201 159.861877,38.988605 
	C180.308670,38.585438 200.756744,38.111572 221.206100,37.999535 
	C290.547150,37.619644 359.888977,37.385124 429.723816,37.548019 
	C430.362061,48.536938 427.821838,51.142048 417.399139,51.150063 
	C415.075470,51.151848 412.726562,50.943230 410.433411,51.210323 
	C405.713867,51.760021 401.487732,53.261894 399.178772,58.769283 
	C412.303894,62.182167 425.070404,65.501793 438.225433,68.918793 
	C467.959625,77.334885 497.338104,85.540192 526.637939,94.017326 
	C542.713379,98.668327 558.691345,103.880676 575.501770,104.862717 
	C594.064331,105.947128 612.665161,106.521820 631.257812,106.887779 
	C641.040710,107.080338 650.839844,106.253380 660.635071,106.062729 
	C681.758911,105.651566 702.885925,105.402061 724.009583,104.981285 
	C730.475708,104.852486 736.933228,104.336769 743.397888,104.075684 
	C760.984985,103.365402 778.574097,102.705971 796.161682,102.006996 
	C804.290833,101.683929 812.426025,101.432808 820.540833,100.886696 
	C822.600525,100.748093 824.720276,99.853416 826.596252,98.886673 
	C848.590759,87.551987 870.550598,76.149841 892.501709,64.731010 
	C896.103760,62.857231 899.619324,60.817165 903.174805,58.853939 
	C903.023926,58.571709 902.872986,58.289478 902.722046,58.007248 
	C748.764526,58.007248 594.806946,58.007248 440.872498,57.613678 
	C442.926270,50.483528 444.957001,43.746948 446.987732,37.010361 
	C449.612640,37.328194 452.236511,37.911682 454.862671,37.922268 
	C478.018402,38.015587 501.174652,37.958763 524.330505,38.037067 
	C619.919922,38.360317 715.509460,38.673279 811.098450,39.094021 
	C830.390686,39.178940 849.681580,39.680794 868.971802,40.057178 
	C882.766541,40.326332 896.559387,40.693851 910.352478,41.041775 
	C923.146118,41.364479 935.944214,41.584419 948.730896,42.089878 
	C971.285095,42.981449 993.837952,43.938896 1016.379883,45.094707 
	C1031.444580,45.867138 1046.529297,46.625916 1061.533813,48.111858 
	C1085.244873,50.460045 1108.945801,53.051609 1132.545532,56.305748 
	C1140.849121,57.450710 1146.560425,63.485558 1149.930664,71.927162 
	C1147.087158,79.684303 1147.203735,86.827789 1149.546875,93.891434 
	C1151.632202,100.177856 1158.263794,104.784286 1164.829590,104.933670 
	C1168.115967,121.158569 1171.730469,137.326370 1174.567871,153.629379 
	C1176.324463,163.722260 1177.344971,173.995850 1177.916016,184.231827 
	C1179.219971,207.602722 1180.433960,230.992081 1180.931396,254.389954 
	C1181.283447,270.936462 1180.570190,287.514893 1180.008911,304.068146 
	C1179.655029,314.504395 1179.073975,324.960876 1177.937134,335.336273 
	C1176.134888,351.786682 1174.148804,368.235535 1171.530151,384.571198 
	C1169.858398,395.000275 1166.906006,405.224152 1163.839844,415.787231 
	C1156.408813,415.856262 1152.073364,419.630737 1150.009766,425.426208 
	C1147.340698,432.922913 1146.082031,440.717346 1150.959717,448.063873 
	C1146.499023,457.354279 1139.392578,463.533203 1129.085083,464.875793 
	C1111.205322,467.204712 1093.285156,469.307434 1075.331543,470.958038 
	C1059.821899,472.383972 1044.250122,473.193024 1028.692139,474.016876 
	C1007.154907,475.157349 985.609436,476.174255 964.058899,477.024506 
	C943.315674,477.842896 922.563171,478.444489 901.811462,479.023010 
	C886.192078,479.458435 870.568909,479.889618 854.945068,480.005310 
	C800.182251,480.410858 745.418701,480.722809 690.655029,480.980804 
	C663.506775,481.108704 636.356995,480.926666 609.209106,481.091980 
	C575.932617,481.294586 542.656860,481.669067 509.381805,482.056396 
	C489.594818,482.286713 469.809784,482.684784 449.443909,482.663574 
	C446.267303,473.569977 443.670593,464.820221 441.535400,456.053162 
	C595.645935,456.035858 749.294983,456.035858 902.944031,456.035858 
	C898.507080,452.711182 893.890930,450.225220 889.239563,447.807159 
	C868.157349,436.847260 847.078369,425.880951 825.953918,415.002869 
	C824.070862,414.033142 821.900940,413.273621 819.810486,413.111969 
	C809.233826,412.294159 798.642639,411.648651 788.050354,411.052826 
	C775.134155,410.326355 762.216370,409.595001 749.290894,409.072021 
	C730.044800,408.293335 710.792358,407.170013 691.540894,407.133881 
	C655.761047,407.066772 619.975525,407.453796 584.202454,408.161926 
	C575.002747,408.344025 565.565979,409.413330 556.708496,411.811920 
	C517.020508,422.559509 477.502350,433.934204 437.605927,444.909119 
	C436.831482,444.554657 436.306427,444.125244 435.926361,444.228699 
	C424.240662,447.408722 412.567169,450.633820 400.904694,453.898010 
	C400.529114,454.003113 400.288910,454.591949 399.873260,455.089874 
	C401.501617,459.147156 404.594269,460.929840 408.752228,461.032104 
	C412.747467,461.130371 416.746643,461.058502 420.743896,461.087524 
	C425.654846,461.123138 431.140717,467.379822 430.768127,472.373993 
	C430.509521,475.840698 430.421539,479.320068 430.257324,482.793793 
	C415.274994,482.871490 400.292664,483.015686 385.310333,483.015350 
	C323.036377,483.014038 260.762299,483.031067 198.488541,482.895569 
	C183.371689,482.862671 168.252518,482.386475 153.140747,481.911957 
	C136.386536,481.385864 119.628281,480.832001 102.893280,479.902924 
	C90.828880,479.233185 78.779366,478.120789 66.761627,476.844147 
	C58.117966,475.925903 50.366505,472.503540 44.316837,466.123047 
	C37.396343,458.824066 30.782316,451.234528 24.263353,443.170502 
	C29.252075,428.554901 28.268822,414.594971 22.266953,401.416718 
	C19.190683,394.662140 13.758646,388.970428 4.987695,389.121948 
M1026.940918,357.290710 
	C1028.347290,344.954742 1029.926270,332.635345 1031.116089,320.278534 
	C1032.576538,305.112030 1034.311768,289.934113 1034.815308,274.724274 
	C1035.298706,260.122253 1034.741089,245.452377 1033.944824,230.850296 
	C1033.052002,214.481247 1032.091553,198.057053 1029.868652,181.833832 
	C1026.883301,160.045868 1023.017212,138.357971 1018.810120,116.767235 
	C1016.862610,106.772728 1013.214966,97.109512 1010.229858,86.927055 
	C989.995361,91.670273 970.675415,96.184792 951.362671,100.730377 
	C932.970276,105.059364 914.622559,109.586700 896.181396,113.695961 
	C887.342651,115.665520 888.993042,115.141426 888.984985,122.468201 
	C888.928894,173.461929 888.954712,224.455734 888.954834,275.449524 
	C888.954956,314.944702 888.974426,354.439941 888.920227,393.935028 
	C888.915955,397.027191 889.140747,399.199921 892.962402,400.052826 
	C914.145020,404.780304 935.270630,409.763245 956.412415,414.673187 
	C973.978943,418.752808 991.540771,422.852356 1010.118958,427.179321 
	C1012.455444,419.607788 1015.190063,412.315033 1016.926392,404.791901 
	C1020.498901,389.312469 1023.537598,373.709839 1026.940918,357.290710 
z"/>
<path fill="#ef233c" opacity="1.000000" stroke="none" 
	d="
M385.016418,438.000427 
	C379.985229,437.606049 374.888245,437.596008 369.934601,436.748444 
	C351.866974,433.657013 333.854889,430.242889 315.807770,427.029419 
	C282.150238,421.036377 248.489365,415.061371 214.817337,409.150238 
	C189.605408,404.724304 164.371735,400.422211 139.151489,396.043427 
	C108.402229,390.704651 77.627029,385.505310 46.936432,379.847595 
	C41.187626,378.787811 35.630016,376.173492 30.312225,373.598969 
	C28.654133,372.796204 27.197573,369.786896 27.146528,367.750153 
	C26.850430,355.935638 26.929918,344.109222 27.050484,332.288513 
	C27.081539,329.243683 26.462120,327.224609 23.113855,326.482361 
	C17.005487,325.128174 10.955527,323.510468 4.460840,322.010223 
	C4.028582,278.319550 4.016683,234.621399 4.022593,190.453003 
	C10.822728,188.568649 17.667219,187.379807 24.332251,185.540619 
	C25.588306,185.194016 26.849134,182.271027 26.883877,180.512695 
	C27.110994,169.018616 27.269054,157.508957 26.887100,146.023117 
	C26.699907,140.393921 29.459217,137.461411 34.122955,136.178101 
	C43.665443,133.552292 53.288849,131.170914 62.967831,129.105453 
	C71.691566,127.243843 80.527664,125.901451 89.325333,124.395050 
	C107.729797,121.243706 126.147255,118.168007 144.548691,114.999146 
	C160.676926,112.221771 176.785385,109.329636 192.911926,106.542282 
	C213.434052,102.995209 233.973480,99.547836 254.489822,95.967926 
	C265.072052,94.121422 275.606232,91.999542 286.187683,90.148354 
	C300.187653,87.699112 314.219177,85.430809 328.225220,83.015717 
	C344.516235,80.206612 360.779449,77.231026 377.094940,74.574867 
	C379.424011,74.195694 381.979309,75.206314 384.681458,76.140335 
	C373.812958,94.537109 366.427643,113.976295 361.962372,134.340652 
	C357.569580,154.374466 353.917633,174.622910 351.124969,194.939957 
	C348.600372,213.307129 346.836121,231.867508 346.247284,250.390701 
	C345.423706,276.298309 348.557831,302.052429 351.921692,327.731812 
	C354.855591,350.129272 359.217834,372.203430 365.787689,393.844574 
	C370.488770,409.330017 376.737366,424.095764 385.016418,438.000427 
z"/>
<path fill="#7F9995" opacity="1.000000" stroke="none" 
	d="
M437.836884,68.821411 
	C425.070404,65.501793 412.303894,62.182167 399.178772,58.769283 
	C401.487732,53.261894 405.713867,51.760021 410.433411,51.210323 
	C412.726562,50.943230 415.075470,51.151848 417.399139,51.150063 
	C427.821838,51.142048 430.362061,48.536938 430.203369,37.577820 
	C431.105042,30.766811 431.780792,24.330608 433.055054,18.015181 
	C433.556946,15.527699 435.062866,13.043397 436.686737,11.019020 
	C441.604828,4.888089 445.886902,4.640826 455.010437,9.713924 
	C452.367126,18.501577 449.697968,27.375164 447.008270,36.629559 
	C444.957001,43.746948 442.926270,50.483528 440.627258,57.875092 
	C439.518280,61.960522 438.677582,65.390968 437.836884,68.821411 
z"/>
<path fill="#7E9995" opacity="1.000000" stroke="none" 
	d="
M441.073853,456.070465 
	C443.670593,464.820221 446.267303,473.569977 448.982117,482.688660 
	C451.043671,489.715240 452.987030,496.372833 454.909729,502.959625 
	C443.593811,511.168915 436.522644,504.323181 433.409149,496.046783 
	C431.915710,492.076782 431.540833,487.685974 430.458344,483.139771 
	C430.421539,479.320068 430.509521,475.840698 430.768127,472.373993 
	C431.140717,467.379822 425.654846,461.123138 420.743896,461.087524 
	C416.746643,461.058502 412.747467,461.130371 408.752228,461.032104 
	C404.594269,460.929840 401.501617,459.147156 399.873260,455.089874 
	C400.288910,454.591949 400.529114,454.003113 400.904694,453.898010 
	C412.567169,450.633820 424.240662,447.408722 435.926361,444.228699 
	C436.306427,444.125244 436.831482,444.554657 437.633972,445.289246 
	C439.010620,449.252014 440.042236,452.661255 441.073853,456.070465 
z"/>
<path fill="#FCF9A9" opacity="1.000000" stroke="none" 
	d="
M4.954917,389.499329 
	C13.758646,388.970428 19.190683,394.662140 22.266953,401.416718 
	C28.268822,414.594971 29.252075,428.554901 24.213327,442.821869 
	C21.814957,440.655151 19.165035,438.524719 17.664864,435.768494 
	C10.521538,422.644196 5.922484,408.635590 4.266215,393.739319 
	C4.127479,392.491516 4.687017,391.166046 4.954917,389.499329 
z"/>
<path fill="#FCF9AA" opacity="1.000000" stroke="none" 
	d="
M25.530621,75.039833 
	C28.712830,88.781792 27.562922,102.079491 20.196022,114.339897 
	C17.067465,119.546631 12.227332,122.647148 5.535685,122.952606 
	C6.727351,107.009155 12.142366,92.456223 21.050077,79.204369 
	C22.113926,77.621712 23.803133,76.459412 25.530621,75.039833 
z"/>
<path fill="#FBF9AC" opacity="1.000000" stroke="none" 
	d="
M1164.855225,104.544785 
	C1158.263794,104.784286 1151.632202,100.177856 1149.546875,93.891434 
	C1147.203735,86.827789 1147.087158,79.684303 1149.999756,72.276443 
	C1151.837280,73.869659 1154.111450,75.562637 1155.021973,77.808418 
	C1158.543945,86.495354 1161.631348,95.358437 1164.855225,104.544785 
z"/>
<path fill="#FBF8AC" opacity="1.000000" stroke="none" 
	d="
M1151.255737,447.882874 
	C1146.082031,440.717346 1147.340698,432.922913 1150.009766,425.426208 
	C1152.073364,419.630737 1156.408813,415.856262 1163.556396,416.030670 
	C1162.167969,427.503296 1158.273926,438.156555 1151.255737,447.882874 
z"/>
<path fill="#4d0000" opacity="1.000000" stroke="none" 
	d="
M385.356598,438.136658 
	C376.737366,424.095764 370.488770,409.330017 365.787689,393.844574 
	C359.217834,372.203430 354.855591,350.129272 351.921692,327.731812 
	C348.557831,302.052429 345.423706,276.298309 346.247284,250.390701 
	C346.836121,231.867508 348.600372,213.307129 351.124969,194.939957 
	C353.917633,174.622910 357.569580,154.374466 361.962372,134.340652 
	C366.427643,113.976295 373.812958,94.537109 384.994507,76.358536 
	C398.398376,78.339554 411.879913,80.067688 425.055878,83.116486 
	C458.291809,90.806969 491.390106,99.092255 525.203308,107.299309 
	C523.599854,110.241966 522.235962,112.633148 520.974548,115.077164 
	C508.529572,139.188934 500.918793,164.934006 496.122223,191.479980 
	C492.566528,211.158447 489.644043,230.977112 487.292999,250.834366 
	C486.389282,258.467224 487.347595,266.444855 488.341370,274.151398 
	C490.222443,288.739227 492.437164,303.300110 495.064484,317.772095 
	C499.639099,342.970825 506.175201,367.634613 517.003418,390.976044 
	C519.364136,396.064819 521.996521,401.027557 524.813232,406.667999 
	C511.310852,410.108093 497.945862,413.712982 484.482422,416.902405 
	C454.999603,423.886780 425.477936,430.709106 395.938934,437.452057 
	C392.634613,438.206329 389.115997,438.021973 385.356598,438.136658 
z"/>
<path fill="#4d0000" opacity="1.000000" stroke="none" 
	d="
M1026.868408,357.724304 
	C1023.537598,373.709839 1020.498901,389.312469 1016.926392,404.791901 
	C1015.190063,412.315033 1012.455444,419.607788 1010.118958,427.179321 
	C991.540771,422.852356 973.978943,418.752808 956.412415,414.673187 
	C935.270630,409.763245 914.145020,404.780304 892.962402,400.052826 
	C889.140747,399.199921 888.915955,397.027191 888.920227,393.935028 
	C888.974426,354.439941 888.954956,314.944702 888.954834,275.449524 
	C888.954712,224.455734 888.928894,173.461929 888.984985,122.468201 
	C888.993042,115.141426 887.342651,115.665520 896.181396,113.695961 
	C914.622559,109.586700 932.970276,105.059364 951.362671,100.730377 
	C970.675415,96.184792 989.995361,91.670273 1010.229858,86.927055 
	C1013.214966,97.109512 1016.862610,106.772728 1018.810120,116.767235 
	C1023.017212,138.357971 1026.883301,160.045868 1029.868652,181.833832 
	C1032.091553,198.057053 1033.052002,214.481247 1033.944824,230.850296 
	C1034.741089,245.452377 1035.298706,260.122253 1034.815308,274.724274 
	C1034.311768,289.934113 1032.576538,305.112030 1031.116089,320.278534 
	C1029.926270,332.635345 1028.347290,344.954742 1026.868408,357.724304 
z"/>
<path fill="#4d0000" opacity="1.000000" stroke="none" 
	d="
M441.535370,456.053162 
	C440.042236,452.661255 439.010620,449.252014 437.950958,445.462646 
	C477.502350,433.934204 517.020508,422.559509 556.708496,411.811920 
	C565.565979,409.413330 575.002747,408.344025 584.202454,408.161926 
	C619.975525,407.453796 655.761047,407.066772 691.540894,407.133881 
	C710.792358,407.170013 730.044800,408.293335 749.290894,409.072021 
	C762.216370,409.595001 775.134155,410.326355 788.050354,411.052826 
	C798.642639,411.648651 809.233826,412.294159 819.810486,413.111969 
	C821.900940,413.273621 824.070862,414.033142 825.953918,415.002869 
	C847.078369,425.880951 868.157349,436.847260 889.239563,447.807159 
	C893.890930,450.225220 898.507080,452.711182 902.944031,456.035858 
	C749.294983,456.035858 595.645935,456.035858 441.535370,456.053162 
z"/>
<path fill="#4d0000" opacity="1.000000" stroke="none" 
	d="
M438.225433,68.918793 
	C438.677582,65.390968 439.518280,61.960522 440.604187,58.268661 
	C594.806946,58.007248 748.764526,58.007248 902.722046,58.007248 
	C902.872986,58.289478 903.023926,58.571709 903.174805,58.853939 
	C899.619324,60.817165 896.103760,62.857231 892.501709,64.731010 
	C870.550598,76.149841 848.590759,87.551987 826.596252,98.886673 
	C824.720276,99.853416 822.600525,100.748093 820.540833,100.886696 
	C812.426025,101.432808 804.290833,101.683929 796.161682,102.006996 
	C778.574097,102.705971 760.984985,103.365402 743.397888,104.075684 
	C736.933228,104.336769 730.475708,104.852486 724.009583,104.981285 
	C702.885925,105.402061 681.758911,105.651566 660.635071,106.062729 
	C650.839844,106.253380 641.040710,107.080338 631.257812,106.887779 
	C612.665161,106.521820 594.064331,105.947128 575.501770,104.862717 
	C558.691345,103.880676 542.713379,98.668327 526.637939,94.017326 
	C497.338104,85.540192 467.959625,77.334885 438.225433,68.918793 
z"/>
</svg>